<svg height='100px' width='100px'  fill="#000000" xmlns="http://www.w3.org/2000/svg" xmlns:xlink="http://www.w3.org/1999/xlink" version="1.1" x="0px" y="0px" viewBox="0 0 100 100" enable-background="new 0 0 100 100" xml:space="preserve"><path fill-rule="evenodd" clip-rule="evenodd" d="M50.6,90.61C27.71,90.7,9.9,72.47,9.42,50.82C8.89,26.36,27.71,8.42,50.44,8.35  c22.97-0.07,41.87,18.11,41.27,42.43C91.18,72.53,73.52,90.67,50.6,90.61z M47.96,37.51c-3.2-1.37-4.84-3.96-6.36-6.71  c-0.37-0.67-0.91-1.54-1.55-1.72c-2.81-0.78-4.83,0.6-5.68,3.51c-2.29,7.91-4.66,15.79-6.95,23.7c-0.9,3.09-1.66,6.21-2.54,9.55  c5.23-1.29,9.21-3.68,12.37-7.43c1.95-2.33,4.06-4.53,5.98-6.89c1.11-1.37,2.35-2.17,4.13-1.99c1.14,2.93,0.88,5.47-1.63,7.63  c-0.61,0.52-1.28,1.9-1.02,2.33c1.87,3.04,3.98,5.94,6.16,9.11c1.96-2.81,3.57-5.32,5.38-7.65c1.18-1.52,1.23-2.68-0.28-3.92  c-2.54-2.1-2.75-4.7-1.22-8.15c1.34,0.97,2.74,1.71,3.78,2.79c2.06,2.12,3.94,4.44,5.87,6.68c3.21,3.73,7.12,6.28,12.15,7.35  c-0.1-0.71-0.1-1.31-0.26-1.86c-1.58-5.48-3.21-10.95-4.78-16.44c-1.43-4.99-2.69-10.04-4.27-14.98c-0.38-1.19-1.58-2.52-2.72-2.98  c-1.77-0.71-3.65-0.7-4.67,1.75c-1.15,2.76-3.04,5.03-6.18,6.39c-0.32-1.92-0.71-3.71-0.88-5.53c-0.15-1.57-0.89-2.26-2.41-2.24  c-1.55,0.02-3.31-0.34-3.92,1.84C48.79,32.21,48.79,32.21,47.96,37.51z"></path></svg>