<svg height='100px' width='100px'  fill="#000000" xmlns="http://www.w3.org/2000/svg" xmlns:xlink="http://www.w3.org/1999/xlink" version="1.1" x="0px" y="0px" viewBox="0 0 100 100" enable-background="new 0 0 100 100" xml:space="preserve"><path fill-rule="evenodd" clip-rule="evenodd" d="M26.67,44.67c0.33-12.69,10.74-22.17,22.76-21.97  c13.05,0.21,22.92,10.69,22.42,23.59c-0.48,12.21-10.71,22.34-23.97,21.62C35.98,67.25,26.26,57.2,26.67,44.67z M61.1,45.17  c-0.01-6.61-5.42-12.01-12-11.98c-6.59,0.03-12.08,5.54-11.98,12.03c0.1,6.57,5.44,11.89,11.96,11.93  C55.64,57.2,61.11,51.75,61.1,45.17z"></path><path fill-rule="evenodd" clip-rule="evenodd" d="M55.94,40.29c-2.26,4.98-4.44,9.79-6.73,14.85c-2.3-5.07-4.49-9.89-6.74-14.85  C46.99,40.29,51.33,40.29,55.94,40.29z"></path></svg>