<svg height='100px' width='100px'  fill="#000000" xmlns="http://www.w3.org/2000/svg" xmlns:xlink="http://www.w3.org/1999/xlink" version="1.1" x="0px" y="0px" viewBox="0 0 100 100" enable-background="new 0 0 100 100" xml:space="preserve"><path fill-rule="evenodd" clip-rule="evenodd" d="M72.87,49.76c0.34,12.46-9.29,22.42-21.08,23.12  c-13.38,0.8-23.61-9.36-24.11-21.59c-0.52-12.93,9.26-23.31,22.4-23.6C62.01,27.43,72.6,36.93,72.87,49.76z M40.08,50.76  c0.17-0.78,0.27-1.25,0.4-1.84c0.87-0.05,1.74-0.25,2.55-0.1c0.52,0.09,1.2,0.62,1.33,1.08c0.11,0.41-0.32,1.17-0.74,1.48  c-0.89,0.65-1.93,0.98-3.13,0.27c1.71,3.3,2.77,6.76,3.66,10.29c0.1,0,0.21,0,0.32,0c0.58-0.93,1.15-1.86,1.89-3.06  c0.56,2.3,1.74,3.76,3.59,4.77c0.21-1.12,0.41-2.14,0.63-3.28c1.59,1.31,3.09,2.61,5.32,2.81c-0.39-1.91-0.75-3.64-1.14-5.57  c2.36,1.34,4.54,2.54,7.18,2.62c-0.5-1.58-2.19-2.39-2.21-4.2c1.61,0.29,3.01,0.54,4.43,0.79c-0.57-1.56-1.15-2.91-1.55-4.31  c-0.4-1.4-0.67-2.85-0.91-4.29c-0.27-1.56-0.67-3.02-1.86-4.16c-0.24-0.23-0.39-0.55-0.61-0.86c0.49-0.1,0.86-0.18,1.26-0.26  c-2.64-4.41-2.45-4.08-5.09-4.82c-0.04-0.37-0.07-0.76-0.14-1.49c-2.23,0.38-4.36,0.75-6.49,1.12c0.03-0.11,0.11-0.39,0.19-0.69  c-1.7,0.13-3.73,1.6-4.34,3.07c-0.21,0.51-0.4,1.31-0.78,1.44c-1.1,0.38-2.17,0.62-2.5,1.96c-0.04,0.15-0.41,0.22-0.63,0.33  c-0.69,0.34-1.39,0.68-2.08,1.01c-1.1,0.53-1.38,1.41-0.83,2.42C38.41,48.42,39.21,49.46,40.08,50.76z"></path><path fill-rule="evenodd" clip-rule="evenodd" d="M42.11,43.97c1.08-0.53,1.98-0.57,2.62,0.27c0.07,0.09-0.89,0.97-1.54,1.67  C42.71,45.05,42.43,44.53,42.11,43.97z"></path></svg>