<svg height='100px' width='100px'  fill="#000000" xmlns="http://www.w3.org/2000/svg" xmlns:xlink="http://www.w3.org/1999/xlink" version="1.1" x="0px" y="0px" viewBox="0 0 100 100" enable-background="new 0 0 100 100" xml:space="preserve"><path fill-rule="evenodd" clip-rule="evenodd" d="M72.48,49.57c0.48,12.68-9.39,22.61-20.99,23.31  c-13.57,0.82-23.69-9.46-24.18-21.62c-0.52-12.93,9.54-23.47,22.56-23.57C61.92,27.59,72.13,37.12,72.48,49.57z M49.94,53.41  c-0.83-0.98-1.07-1.63-0.08-2.1c0.35,0.3,0.68,0.58,1.03,0.88c-0.16,0.31-0.3,0.6-0.56,1.12c0.89,0.34,1.71,0.66,2.52,0.97  c0.66,0.39,1.39,0.99,1.64,1.76c0.25,0.74,0.34,2-0.1,2.42c-1.27,1.22-0.74,2.5-0.72,3.89c0.41-0.05,0.73,0,0.96-0.13  c1.74-0.99,3.46-1.99,5.16-3.04c0.19-0.12,0.31-0.62,0.22-0.86c-0.58-1.55-1.17-3.1-1.87-4.6c-0.22-0.47-0.71-0.89-1.18-1.15  c-0.88-0.48-1.4-1.07-1.25-2.13c0.03-0.23-0.09-0.57-0.26-0.73c-1.26-1.2-1.27-1.19,0.14-2.18c2.8-1.98,4.05-4.81,3.46-8.05  c-0.96,0.93-1.88,1.79-2.77,2.67c-1.63,1.64-3.47,2.96-5.68,3.71c-0.35,0.12-0.82,0.15-1.16,0.02c-2.92-1.18-5.38-3.02-7.53-5.3  c-0.36-0.38-0.75-0.75-1.23-1.22c-0.43,4.65,1.87,7.44,5.71,9.31c-0.35,0.23-0.47,0.34-0.62,0.41c-0.82,0.39-1.71,0.64-1.49,1.93  c0.06,0.39-0.47,1.11-0.9,1.3c-1.54,0.68-1.96,2.05-2.45,3.43c-0.15,0.42-0.42,0.83-0.72,1.16c-0.5,0.56-0.33,2.19,0.31,2.56  c1.41,0.81,2.8,1.66,4.23,2.45c0.46,0.25,1.01,0.35,1.62,0.55c0.12-1.56,0.34-2.82-0.8-3.97c-1.02-1.02,0.23-4.21,1.63-4.47  C47.97,53.88,48.73,53.69,49.94,53.41z"></path></svg>