<svg height='100px' width='100px'  fill="#000000" xmlns="http://www.w3.org/2000/svg" xmlns:xlink="http://www.w3.org/1999/xlink" version="1.1" x="0px" y="0px" viewBox="0 0 100 100" enable-background="new 0 0 100 100" xml:space="preserve"><path fill-rule="evenodd" clip-rule="evenodd" d="M49.99,72.89c-12.62-0.05-22.31-10.08-22.53-21.97  c-0.25-13.59,10.36-23.28,22.62-23.25c12.65,0.04,22.88,10.02,22.59,23.28C72.42,62.89,62.68,72.92,49.99,72.89z M42,55.28  c-0.47-0.29-0.78-0.44-1.05-0.65c-0.87-0.67-1.89-1.22-2.54-2.06c-0.61-0.78-1.02-1.85-1.14-2.84c-0.18-1.56,0.88-2.59,2.45-2.73  c1.62-0.15,4.74,2.38,5.15,3.98c0.55,2.16,1.31,4.26,1.92,6.4c0.23,0.79,0.51,1.65,0.42,2.45c-0.13,1.17-0.02,2.08,0.93,2.91  c0.8,0.69,2.2,1.16,3.11,0.76c0.82-0.37,1.96-2,1.8-2.79c-0.31-1.52,0.07-2.84,0.71-4.21c0.62-1.32,1.32-2.72,1.42-4.13  c0.16-2.32,1.49-3.65,3.23-4.69c1.97-1.19,3.96-0.69,4.47,1.06c0.41,1.42,0.09,2.8-1.02,3.82c-1.06,0.98-2.24,1.82-3.38,2.72  c0.02,0.02,0.04,0.11,0.1,0.14c0.11,0.05,0.23,0.08,0.35,0.09c2.23,0.34,3.88-0.56,5.36-2.21c2.48-2.76,3.14-5.55,0.98-8.72  c-0.74-1.08-1.9-2.2-3.09-2.56c-2.23-0.68-4.61-0.61-6.77,0.56c-1.14,0.62-2.23,1.33-3.29,2.08c-1.22,0.86-2.94,0.93-4.06-0.06  c-1.54-1.36-3.3-2.38-5.28-2.68c-1.68-0.25-3.6-0.35-5.14,0.22c-2.89,1.06-5.21,5.58-3.36,8.68c0.76,1.28,1.63,2.56,2.72,3.55  C38.31,55.56,39.97,56,42,55.28z"></path></svg>