<svg height='100px' width='100px'  fill="#000000" xmlns="http://www.w3.org/2000/svg" xmlns:xlink="http://www.w3.org/1999/xlink" version="1.1" x="0px" y="0px" viewBox="0 0 100 100" enable-background="new 0 0 100 100" xml:space="preserve"><path fill-rule="evenodd" clip-rule="evenodd" d="M72.57,49.7c0.31,12.39-9.1,22.37-20.92,23.18c-13.32,0.91-23.71-9.08-24.29-21.51  C26.79,38.83,36.39,27.89,49.8,27.7C61.7,27.53,72.18,36.9,72.57,49.7z M67.91,50.33c0-2.68-1.87-5.02-4.44-5.57  c-2.64-0.55-5.29,0.85-6.42,3.35c-0.18,0.4-0.54,0.87-0.91,0.99c-0.84,0.27-0.79-0.59-1.01-1.04c-1.09-2.17-2.83-3.38-5.27-3.32  c-2.31,0.06-3.99,1.22-5.05,3.3c-0.22,0.43-0.68,0.74-1.03,1.1c-0.35-0.36-0.82-0.67-1.02-1.1c-0.97-2.15-3.13-3.53-5.46-3.41  c-2.39,0.13-4.5,1.74-5.11,3.89c-0.84,2.95,0.53,5.87,3.25,6.96c2.84,1.13,5.86-0.11,7.29-2.96c0.2-0.39,0.61-0.8,1.01-0.93  c0.8-0.26,0.84,0.51,1.07,1c1.03,2.22,2.79,3.38,5.22,3.37c2.45-0.01,4.12-1.27,5.17-3.46c0.19-0.39,0.63-0.8,1.02-0.88  c0.23-0.05,0.7,0.5,0.86,0.87c1.09,2.38,3.73,3.84,6.2,3.36C65.96,55.33,67.9,53.03,67.91,50.33z"></path></svg>